<?xml version="1.0" encoding="UTF-8" standalone="no"?>
<!-- Created with Inkscape (http://www.inkscape.org/) -->

<svg
   width="1700"
   height="1700"
   viewBox="0 0 363.2845 363.2845"
   version="1.1"
   id="svg1"
   xml:space="preserve"
   inkscape:version="1.4 (86a8ad7, 2024-10-11)"
   sodipodi:docname="frame.svg"
   inkscape:export-filename="C:\Users\jorge\OneDrive\Ãrea de Trabalho\frame.png"
   inkscape:export-xdpi="96"
   inkscape:export-ydpi="96"
   xmlns:inkscape="http://www.inkscape.org/namespaces/inkscape"
   xmlns:sodipodi="http://sodipodi.sourceforge.net/DTD/sodipodi-0.dtd"
   xmlns="http://www.w3.org/2000/svg"
   xmlns:svg="http://www.w3.org/2000/svg"><sodipodi:namedview
     id="namedview1"
     pagecolor="#505050"
     bordercolor="#eeeeee"
     borderopacity="1"
     inkscape:showpageshadow="0"
     inkscape:pageopacity="0"
     inkscape:pagecheckerboard="0"
     inkscape:deskcolor="#505050"
     inkscape:document-units="mm"
     showguides="false"
     inkscape:zoom="0.32902662"
     inkscape:cx="232.50398"
     inkscape:cy="837.31827"
     inkscape:window-width="1920"
     inkscape:window-height="991"
     inkscape:window-x="-9"
     inkscape:window-y="-9"
     inkscape:window-maximized="1"
     inkscape:current-layer="g8" /><defs
     id="defs1" /><g
     inkscape:groupmode="layer"
     id="layer2"
     inkscape:label="Layer 2"
     transform="translate(375.20018,22.52934)" /><g
     inkscape:label="Layer 1"
     inkscape:groupmode="layer"
     id="layer1"
     style="display:inline;opacity:1"
     transform="scale(1.7594882)"><path
       id="rect1"
       style="display:inline;fill:#000000;fill-opacity:1;stroke-width:0.365538"
       d="M 206.47169,0 V 206.47169 H 0 V 0 Z M 6.0726967,30.363484 V 176.10821 H 200.39899 V 30.363484"
       sodipodi:nodetypes="ccccccccc" /><g
       id="g8"
       transform="translate(-8.6223727)"><g
         inkscape:label="Layer 1"
         id="layer1-1"
         transform="matrix(0.0611609,0,0,0.0611609,66.854835,24.778309)"
         style="display:inline"><g
           id="g1"
           transform="matrix(2.9202654,0,0,2.9202654,798.11748,-41.612757)"
           style="display:inline"><rect
             style="fill:#fac610;fill-opacity:1;stroke:#000000;stroke-width:8.5997;stroke-dasharray:none;stroke-opacity:1"
             id="rect1-1"
             width="341.7608"
             height="99.082581"
             x="-398.31714"
             y="-86.903351"
             rx="10.654566" /><path
             d="m -356.43819,-2.0292942 -4.42767,-20.8985788 -3.76351,-40.070368 h -11.68904 v -9.785139 h 18.90613 l 4.87043,26.69882 1.72679,34.270126 h 2.08101 l 1.59395,-34.402956 4.95899,-26.56599 h 18.90613 v 9.785139 h -11.68904 l -3.71923,40.114645 -4.51622,20.8543018 z m -19.88022,0.088553 V -59.013342 h 8.27974 l 2.78943,37.280939 v 19.7916621 z m 41.97427,0 V -21.64385 l 2.8337,-37.369492 h 8.23546 v 57.0726011 z m 16.161,0 9.16526,-70.8426391 h 18.7733 l 1.23975,9.785139 h -11.82187 l -1.23974,20.588642 -1.77107,14.168528 h 5.8888 l -2.56805,9.78514 h -3.9849 l -2.34666,16.5151901 z m 25.5919,0 -4.56049,-40.5574111 -0.79698,-16.603743 h 9.16526 l 7.52703,57.1611541 z m 20.0423,0 V -59.101895 h 11.06916 v 57.1611541 z m -10.71495,-61.0575001 v -9.785139 h 32.41051 v 9.785139 z m 50.14416,61.8102031 q -7.52703,-0.3984898 -10.93633,-4.1177284 -3.36503,-3.7192386 -3.54213,-11.7333117 -0.13283,-4.958985 -0.17711,-10.0508 -0.0443,-5.091815 -0.0443,-10.272183 0,-5.224644 0.0443,-10.316459 0.0443,-5.136091 0.17711,-10.050799 0.1771,-8.014074 3.54213,-11.689036 3.4093,-3.719238 10.93633,-4.117728 v 9.25382 q -1.63823,0.398489 -2.47949,1.549682 -0.79698,1.106917 -0.88553,3.010812 -0.17711,5.047539 -0.30994,10.71495 -0.0885,5.667411 -0.0885,11.556205 0,5.888795 0.0885,11.600482 0.13283,5.711688 0.30994,10.803503 0.0885,1.903896 0.88553,3.055089 0.84126,1.151193 2.47949,1.549682 z m 4.25056,0 v -9.2538201 q 1.68251,-0.398489 2.47949,-1.549682 0.84126,-1.151193 0.88554,-3.055089 0.1771,-5.091815 0.26566,-10.803503 0.0885,-5.711687 0.0885,-11.600482 0,-5.888794 -0.0885,-11.556205 -0.0886,-5.667411 -0.26566,-10.71495 -0.0443,-1.903895 -0.88554,-3.010812 -0.84125,-1.106916 -2.47949,-1.549682 v -9.25382 q 7.52703,0.442766 10.8035,4.162005 3.27648,3.719238 3.54213,11.644759 0.13283,5.003261 0.22139,10.139352 0.0885,5.091815 0.0885,10.272183 0,5.136091 -0.0885,10.227906 -0.0886,5.091815 -0.22139,10.0508 -0.26565,7.9697965 -3.54213,11.689035 -3.27647,3.7192386 -10.8035,4.1620051 z m 21.91691,-0.752703 V -72.78338 h 11.02489 v 70.8426391 z m 15.27545,-24.0422211 v -9.785139 h 0.44276 q 2.87799,0 4.25056,-1.3283 1.41685,-1.328299 1.54968,-3.852068 0.13283,-2.568046 0.17711,-5.490305 0.0443,-2.966535 0,-5.888794 -0.0443,-2.922259 -0.17711,-5.490305 -0.13283,-2.568045 -1.54968,-3.852068 -1.37257,-1.3283 -4.20628,-1.3283 h -0.48704 v -9.785139 h 0.48704 q 8.7225,0 12.61885,3.630685 3.89634,3.586409 4.20628,11.866142 0.13283,4.383389 0.13283,8.05835 0,3.630686 -0.13283,7.704137 -0.30994,8.279734 -4.20628,11.910419 -3.89635,3.630685 -12.66313,3.630685 z m 23.37812,24.0422211 V -72.78338 h 11.02488 v 70.8426391 z m 18.81755,0 V -72.78338 h 11.02488 v 70.8426391 z m 15.27544,-24.0422211 v -9.785139 h 0.44277 q 2.87798,0 4.25056,-1.3283 1.41685,-1.328299 1.54968,-3.852068 0.13283,-2.568046 0.17711,-5.490305 0.0443,-2.966535 0,-5.888794 -0.0443,-2.922259 -0.17711,-5.490305 -0.13283,-2.568045 -1.54968,-3.852068 -1.37258,-1.3283 -4.20628,-1.3283 h -0.48705 v -9.785139 h 0.48705 q 8.7225,0 12.61884,3.630685 3.89635,3.586409 4.20628,11.866142 0.13283,4.383389 0.13283,8.05835 0,3.630686 -0.13283,7.704137 -0.30993,8.279734 -4.20628,11.910419 -3.89634,3.630685 -12.66312,3.630685 z m 18.72389,24.0422211 9.16527,-70.8426391 h 18.773299 l 1.239746,9.785139 H -98.12536 l -1.239747,20.588642 -1.771063,14.168528 h 5.888792 l -2.568046,9.78514 h -3.984896 l -2.34666,16.5151901 z m 25.591906,0 -4.560495,-40.5574111 -0.796979,-16.603743 h 9.165266 l 7.527031,57.1611541 z"
             id="text2"
             style="font-weight:bold;font-size:88.5533px;line-height:0;font-family:'Big Shoulders Stencil';-inkscape-font-specification:'Big Shoulders Stencil Bold';stroke-width:0.461214"
             aria-label="MATOPIPA" /></g><path
           d="m 812.48957,-45.89973 q -17.76614,0 -29.69483,-7.614061 -11.67489,-7.61406 -17.76614,-21.065566 -6.09125,-13.451506 -7.10646,-31.217643 l 25.3802,-6.85266 q 0.76141,10.91349 3.29943,21.065569 2.79182,10.15208 8.88307,16.750932 6.09125,6.34505 17.00473,6.34505 11.16729,0 16.75094,-6.091248 5.83744,-6.34505 5.83744,-18.019942 0,-13.959111 -6.34505,-22.334581 -6.34505,-8.62926 -15.98952,-17.25853 l -34.51708,-30.45624 q -10.15208,-8.88307 -14.97432,-19.28895 -4.82223,-10.65969 -4.82223,-26.14161 0,-22.58838 12.9439,-35.02468 12.9439,-12.43629 35.27848,-12.43629 12.18249,0 21.31937,3.29942 9.39067,3.04563 15.48192,9.64448 6.34505,6.59885 9.89828,16.75093 3.80703,9.89828 5.07604,23.34978 l -24.365,6.59886 q -0.7614,-10.15208 -3.04562,-18.52755 -2.28422,-8.62927 -8.12166,-13.70531 -5.58365,-5.32984 -16.24333,-5.32984 -10.65969,0 -16.75093,5.83745 -5.83745,5.58364 -5.83745,16.75093 0,9.39067 3.04562,15.48192 3.29943,6.09125 10.40589,12.4363 l 34.77087,30.45624 q 11.67489,10.15208 20.55796,24.36499 8.88307,13.95911 8.88307,33.248063 0,15.22812 -6.34505,26.395408 -6.34505,10.913486 -17.51234,16.750932 -10.91348,5.837447 -25.3802,5.837447 z m 71.57206,-2.284219 V -253.76357 h 79.69383 v 21.31937 h -51.0142 v 68.01893 h 41.36972 v 20.30416 h -41.36972 v 75.379199 h 51.5218 v 20.557962 z m 102.78971,0 3.80703,-205.579621 h 28.17203 l 36.2937,166.747915 36.5475,-166.747915 h 27.9182 l 3.807,205.579621 h -23.096 l -2.2842,-149.235581 -34.7709,149.235581 h -16.2433 l -34.5171,-149.235581 -2.2842,149.235581 z m 169.53966,0 V -253.76357 h 28.1721 v 205.579621 z m 61.4199,0 V -253.76357 h 19.5428 l 58.3744,136.54548 v -136.54548 h 23.8574 v 205.579621 h -18.2737 l -59.1359,-140.352511 v 140.352511 z m 186.5444,2.284219 q -20.8117,0 -33.248,-8.121665 -12.4363,-8.121664 -17.7662,-23.095982 -5.3298,-15.22812 -5.3298,-35.532283 v -77.91721 q 0,-20.30416 5.3298,-34.77088 5.5837,-14.72051 17.7662,-22.33457 12.4363,-7.86786 33.248,-7.86786 20.8118,0 32.9943,7.86786 12.1825,7.86786 17.5123,22.33457 5.5837,14.46672 5.5837,34.77088 v 78.17101 q 0,20.050363 -5.5837,35.024681 -5.3298,14.974318 -17.5123,23.349784 -12.1825,8.121665 -32.9943,8.121665 z m 0,-22.588379 q 11.4211,0 17.2586,-4.568436 5.8374,-4.822238 7.8678,-13.197704 2.0305,-8.629268 2.0305,-20.050361 v -90.09971 q 0,-11.42109 -2.0305,-19.54275 -2.0304,-8.37547 -7.8678,-12.6901 -5.8375,-4.56844 -17.2586,-4.56844 -11.4211,0 -17.5123,4.56844 -5.8374,4.31463 -7.8679,12.6901 -2.0304,8.12166 -2.0304,19.54275 v 90.09971 q 0,11.421093 2.0304,20.050361 2.0305,8.375466 7.8679,13.197704 6.0912,4.568436 17.5123,4.568436 z m 119.2868,20.30416 -45.9381,-205.579621 h 26.903 l 32.4866,151.5198 30.9639,-151.5198 h 26.1416 l -45.4306,205.579621 z m 143.652,2.284219 q -20.8118,0 -33.2481,-8.121665 -12.4363,-8.121664 -17.7661,-23.095982 -5.3299,-15.22812 -5.3299,-35.532283 v -77.91721 q 0,-20.30416 5.3299,-34.77088 5.5836,-14.72051 17.7661,-22.33457 12.4363,-7.86786 33.2481,-7.86786 20.8117,0 32.9942,7.86786 12.1825,7.86786 17.5124,22.33457 5.5836,14.46672 5.5836,34.77088 v 78.17101 q 0,20.050363 -5.5836,35.024681 -5.3299,14.974318 -17.5124,23.349784 -12.1825,8.121665 -32.9942,8.121665 z m 0,-22.588379 q 11.421,0 17.2585,-4.568436 5.8374,-4.822238 7.8679,-13.197704 2.0304,-8.629268 2.0304,-20.050361 v -90.09971 q 0,-11.42109 -2.0304,-19.54275 -2.0305,-8.37547 -7.8679,-12.6901 -5.8375,-4.56844 -17.2585,-4.56844 -11.4211,0 -17.5124,4.56844 -5.8374,4.31463 -7.8678,12.6901 -2.0305,8.12166 -2.0305,19.54275 v 90.09971 q 0,11.421093 2.0305,20.050361 2.0304,8.375466 7.8678,13.197704 6.0913,4.568436 17.5124,4.568436 z m 132.7383,22.588379 q -17.7662,0 -29.6949,-7.614061 -11.6749,-7.61406 -17.7661,-21.065566 -6.0913,-13.451506 -7.1065,-31.217643 l 25.3802,-6.85266 q 0.7614,10.91349 3.2995,21.065569 2.7918,10.15208 8.883,16.750932 6.0913,6.34505 17.0048,6.34505 11.1672,0 16.7509,-6.091248 5.8374,-6.34505 5.8374,-18.019942 0,-13.959111 -6.345,-22.334581 -6.3451,-8.62926 -15.9895,-17.25853 l -34.5171,-30.45624 q -10.1521,-8.88307 -14.9743,-19.28895 -4.8223,-10.65969 -4.8223,-26.14161 0,-22.58838 12.9439,-35.02468 12.9439,-12.43629 35.2785,-12.43629 12.1825,0 21.3194,3.29942 9.3907,3.04563 15.4819,9.64448 6.3451,6.59885 9.8983,16.75093 3.807,9.89828 5.076,23.34978 l -24.365,6.59886 q -0.7614,-10.15208 -3.0456,-18.52755 -2.2842,-8.62927 -8.1217,-13.70531 -5.5836,-5.32984 -16.2433,-5.32984 -10.6597,0 -16.7509,5.83745 -5.8375,5.58364 -5.8375,16.75093 0,9.39067 3.0457,15.48192 3.2994,6.09125 10.4058,12.4363 l 34.7709,30.45624 q 11.6749,10.15208 20.558,24.36499 8.883,13.95911 8.883,33.248063 0,15.22812 -6.345,26.395408 -6.3451,10.913486 -17.5123,16.750932 -10.9135,5.837447 -25.3802,5.837447 z"
           id="text1"
           style="font-size:253.802px;line-height:0;font-family:Oswald;-inkscape-font-specification:Oswald;fill:#fac610;stroke-width:1.32189"
           aria-label="SEMINOVOS" /></g></g><path
       d="m 8.1558809,194.38527 q -0.6529383,0 -1.1193228,-0.23838 -0.4560204,-0.24873 -0.6943947,-0.71512 -0.2383743,-0.46638 -0.2487384,-1.12969 0,-0.0207 0,-0.0414 0,-0.0311 0,-0.0518 h 1.1089587 q 0,0.60112 0.1969179,0.93277 0.1969179,0.32128 0.7669434,0.32128 0.3109231,0 0.5182051,-0.18655 0.207282,-0.19692 0.310923,-0.59075 0.103641,-0.4042 0.103641,-1.01569 v -1.27478 q -0.1554615,0.2591 -0.4663845,0.42493 -0.3005589,0.15546 -0.7565794,0.15546 -0.6943947,0 -1.0882305,-0.30056 -0.3938358,-0.31092 -0.5596614,-0.84986 -0.1554615,-0.54929 -0.1554615,-1.27478 0,-0.76694 0.207282,-1.37842 0.207282,-0.62185 0.6633024,-0.98459 0.4663845,-0.36275 1.2125997,-0.36275 0.7254871,0 1.1815075,0.37311 0.4560204,0.36274 0.6633026,0.98459 0.217646,0.62185 0.217646,1.38879 v 2.81903 q 0,0.8084 -0.186554,1.49243 -0.1865537,0.68404 -0.63221,1.0986 -0.4456563,0.4042 -1.2436921,0.4042 z m 0,-4.24928 q 0.3627436,0 0.5907538,-0.17619 0.2280102,-0.18656 0.3523794,-0.4042 v -1.24369 q 0,-0.4353 -0.082913,-0.78768 -0.082913,-0.36274 -0.2901948,-0.57002 -0.207282,-0.21765 -0.5700256,-0.21765 -0.3627435,0 -0.5803896,0.21765 -0.207282,0.21765 -0.3005589,0.57002 -0.082913,0.34202 -0.082913,0.75658 0,0.49748 0.041456,0.92241 0.051821,0.42493 0.2487384,0.68403 0.207282,0.24874 0.6736665,0.24874 z m 5.2027871,4.24928 q -0.652938,0 -1.119323,-0.23838 -0.45602,-0.24873 -0.694395,-0.71512 -0.238374,-0.46638 -0.248738,-1.12969 0,-0.0207 0,-0.0414 0,-0.0311 0,-0.0518 h 1.108959 q 0,0.60112 0.196918,0.93277 0.196917,0.32128 0.766943,0.32128 0.310923,0 0.518205,-0.18655 0.207282,-0.19692 0.310923,-0.59075 0.103641,-0.4042 0.103641,-1.01569 v -1.27478 q -0.155462,0.2591 -0.466385,0.42493 -0.300558,0.15546 -0.756579,0.15546 -0.694395,0 -1.08823,-0.30056 -0.393836,-0.31092 -0.559662,-0.84986 -0.155461,-0.54929 -0.155461,-1.27478 0,-0.76694 0.207282,-1.37842 0.207282,-0.62185 0.663302,-0.98459 0.466385,-0.36275 1.2126,-0.36275 0.725487,0 1.181507,0.37311 0.456021,0.36274 0.663303,0.98459 0.217646,0.62185 0.217646,1.38879 v 2.81903 q 0,0.8084 -0.186554,1.49243 -0.186554,0.68404 -0.63221,1.0986 -0.445656,0.4042 -1.243692,0.4042 z m 0,-4.24928 q 0.362743,0 0.590754,-0.17619 0.22801,-0.18656 0.352379,-0.4042 v -1.24369 q 0,-0.4353 -0.08291,-0.78768 -0.08291,-0.36274 -0.290195,-0.57002 -0.207282,-0.21765 -0.570025,-0.21765 -0.362744,0 -0.58039,0.21765 -0.207282,0.21765 -0.300559,0.57002 -0.08291,0.34202 -0.08291,0.75658 0,0.49748 0.04146,0.92241 0.05182,0.42493 0.248738,0.68403 0.207282,0.24874 0.673667,0.24874 z m 7.576166,4.24928 q -0.652938,0 -1.119322,-0.23838 -0.456021,-0.24873 -0.694395,-0.71512 -0.238374,-0.46638 -0.248738,-1.12969 0,-0.0207 0,-0.0414 0,-0.0311 0,-0.0518 h 1.108958 q 0,0.60112 0.196918,0.93277 0.196918,0.32128 0.766944,0.32128 0.310923,0 0.518205,-0.18655 0.207282,-0.19692 0.310923,-0.59075 0.103641,-0.4042 0.103641,-1.01569 v -1.27478 q -0.155462,0.2591 -0.466385,0.42493 -0.300559,0.15546 -0.756579,0.15546 -0.694395,0 -1.088231,-0.30056 -0.393836,-0.31092 -0.559661,-0.84986 -0.155462,-0.54929 -0.155462,-1.27478 0,-0.76694 0.207282,-1.37842 0.207282,-0.62185 0.663303,-0.98459 0.466384,-0.36275 1.212599,-0.36275 0.725488,0 1.181508,0.37311 0.45602,0.36274 0.663302,0.98459 0.217646,0.62185 0.217646,1.38879 v 2.81903 q 0,0.8084 -0.186553,1.49243 -0.186554,0.68404 -0.63221,1.0986 -0.445657,0.4042 -1.243693,0.4042 z m 0,-4.24928 q 0.362744,0 0.590754,-0.17619 0.22801,-0.18656 0.35238,-0.4042 v -1.24369 q 0,-0.4353 -0.08291,-0.78768 -0.08291,-0.36274 -0.290195,-0.57002 -0.207282,-0.21765 -0.570026,-0.21765 -0.362743,0 -0.580389,0.21765 -0.207282,0.21765 -0.300559,0.57002 -0.08291,0.34202 -0.08291,0.75658 0,0.49748 0.04146,0.92241 0.05182,0.42493 0.248738,0.68403 0.207282,0.24874 0.673666,0.24874 z m 5.254608,4.24928 q -0.756579,0 -1.212599,-0.30056 -0.456021,-0.30056 -0.663303,-0.84986 -0.196918,-0.55966 -0.196918,-1.30587 0,-0.42493 0.07255,-0.74622 0.07255,-0.32129 0.207282,-0.55966 0.145097,-0.24874 0.331651,-0.42493 0.196918,-0.18655 0.424928,-0.33165 -0.414564,-0.27983 -0.673666,-0.72549 -0.259103,-0.45602 -0.259103,-1.15041 0,-0.6633 0.207282,-1.15042 0.207282,-0.48711 0.642575,-0.74621 0.445656,-0.26947 1.119322,-0.26947 0.673667,0 1.098595,0.26947 0.435292,0.2591 0.642574,0.74621 0.207282,0.48712 0.207282,1.15042 0,0.70476 -0.259102,1.15041 -0.248739,0.44566 -0.673667,0.72549 0.22801,0.1451 0.414564,0.33165 0.196918,0.17619 0.331651,0.42493 0.145098,0.23837 0.217647,0.55966 0.08291,0.32129 0.08291,0.74622 0,0.74621 -0.207282,1.30587 -0.196918,0.5493 -0.652938,0.84986 -0.445656,0.30056 -1.202236,0.30056 z m 0,-0.88095 q 0.4042,0 0.621846,-0.20728 0.217647,-0.20728 0.290195,-0.55966 0.08291,-0.35238 0.08291,-0.78767 0,-0.39384 -0.09328,-0.73586 -0.08291,-0.35238 -0.300559,-0.57002 -0.217646,-0.22801 -0.601118,-0.22801 -0.383471,0 -0.611482,0.21764 -0.217646,0.21765 -0.310923,0.57003 -0.09328,0.34202 -0.09328,0.74622 0,0.43529 0.08291,0.78767 0.08291,0.35238 0.300559,0.55966 0.22801,0.20728 0.63221,0.20728 z m 0,-4.14564 q 0.35238,-0.0104 0.52857,-0.21765 0.186553,-0.20728 0.259102,-0.52856 0.07255,-0.33166 0.07255,-0.68404 0,-0.5182 -0.186554,-0.88094 -0.186554,-0.36275 -0.673667,-0.36275 -0.487112,0 -0.68403,0.36275 -0.196918,0.36274 -0.196918,0.88094 0,0.35238 0.07255,0.68404 0.07255,0.32128 0.259102,0.52856 0.196918,0.20729 0.549297,0.21765 z m 5.430795,4.93331 v -2.24901 h -2.435564 v -1.16078 l 2.186825,-4.98513 h 1.305877 v 5.16132 h 0.943133 v 0.98459 h -0.943133 v 2.24901 z m -1.368061,-3.2336 h 1.368061 v -3.81399 z m 5.223504,3.2336 v -6.94395 q -0.01036,0.0104 -0.238374,0.0622 -0.217647,0.0518 -0.497477,0.10364 -0.279831,0.0518 -0.497477,0.0933 -0.217646,0.0414 -0.22801,0.0414 v -0.83949 q 0.176189,-0.0414 0.4042,-0.114 0.238374,-0.0726 0.476748,-0.17619 0.248739,-0.10364 0.466385,-0.25911 0.22801,-0.15546 0.383472,-0.36274 h 0.839492 v 8.39492 z m 4.684576,0.0933 q -0.652938,0 -1.119322,-0.23838 -0.456021,-0.24873 -0.694395,-0.71512 -0.238374,-0.46638 -0.248739,-1.12969 0,-0.0207 0,-0.0414 0,-0.0311 0,-0.0518 h 1.108959 q 0,0.60112 0.196918,0.93277 0.196918,0.32128 0.766944,0.32128 0.310923,0 0.518205,-0.18655 0.207282,-0.19692 0.310923,-0.59075 0.103641,-0.4042 0.103641,-1.01569 v -1.27478 q -0.155462,0.2591 -0.466385,0.42493 -0.300559,0.15546 -0.756579,0.15546 -0.694395,0 -1.088231,-0.30056 -0.393836,-0.31092 -0.559661,-0.84986 -0.155462,-0.54929 -0.155462,-1.27478 0,-0.76694 0.207282,-1.37842 0.207282,-0.62185 0.663303,-0.98459 0.466384,-0.36275 1.212599,-0.36275 0.725487,0 1.181508,0.37311 0.45602,0.36274 0.663302,0.98459 0.217646,0.62185 0.217646,1.38879 v 2.81903 q 0,0.8084 -0.186553,1.49243 -0.186554,0.68404 -0.632211,1.0986 -0.445656,0.4042 -1.243692,0.4042 z m 0,-4.24928 q 0.362744,0 0.590754,-0.17619 0.22801,-0.18656 0.35238,-0.4042 v -1.24369 q 0,-0.4353 -0.08291,-0.78768 -0.08291,-0.36274 -0.290195,-0.57002 -0.207282,-0.21765 -0.570026,-0.21765 -0.362743,0 -0.580389,0.21765 -0.207282,0.21765 -0.300559,0.57002 -0.08291,0.34202 -0.08291,0.75658 0,0.49748 0.04146,0.92241 0.05182,0.42493 0.248739,0.68403 0.207282,0.24874 0.673666,0.24874 z m 3.078145,1.56498 v -0.8395 h 2.311195 v 0.8395 z m 5.316781,2.6843 q -0.756579,0 -1.2126,-0.30056 -0.45602,-0.30056 -0.663302,-0.84986 -0.196918,-0.55966 -0.196918,-1.30587 0,-0.42493 0.07255,-0.74622 0.07255,-0.32129 0.207282,-0.55966 0.145097,-0.24874 0.331651,-0.42493 0.196918,-0.18655 0.424928,-0.33165 -0.414564,-0.27983 -0.673666,-0.72549 -0.259103,-0.45602 -0.259103,-1.15041 0,-0.6633 0.207282,-1.15042 0.207282,-0.48711 0.642574,-0.74621 0.445657,-0.26947 1.119323,-0.26947 0.673667,0 1.098595,0.26947 0.435292,0.2591 0.642574,0.74621 0.207282,0.48712 0.207282,1.15042 0,0.70476 -0.259102,1.15041 -0.248739,0.44566 -0.673667,0.72549 0.22801,0.1451 0.414564,0.33165 0.196918,0.17619 0.331651,0.42493 0.145098,0.23837 0.217646,0.55966 0.08291,0.32129 0.08291,0.74622 0,0.74621 -0.207282,1.30587 -0.196918,0.5493 -0.652938,0.84986 -0.445656,0.30056 -1.202236,0.30056 z m 0,-0.88095 q 0.4042,0 0.621846,-0.20728 0.217646,-0.20728 0.290195,-0.55966 0.08291,-0.35238 0.08291,-0.78767 0,-0.39384 -0.09328,-0.73586 -0.08291,-0.35238 -0.300559,-0.57002 -0.217646,-0.22801 -0.601118,-0.22801 -0.383471,0 -0.611482,0.21764 -0.217646,0.21765 -0.310923,0.57003 -0.09328,0.34202 -0.09328,0.74622 0,0.43529 0.08291,0.78767 0.08291,0.35238 0.300559,0.55966 0.22801,0.20728 0.63221,0.20728 z m 0,-4.14564 q 0.35238,-0.0104 0.528569,-0.21765 0.186554,-0.20728 0.259103,-0.52856 0.07255,-0.33166 0.07255,-0.68404 0,-0.5182 -0.186554,-0.88094 -0.186554,-0.36275 -0.673667,-0.36275 -0.487113,0 -0.68403,0.36275 -0.196918,0.36274 -0.196918,0.88094 0,0.35238 0.07255,0.68404 0.07255,0.32128 0.259103,0.52856 0.196918,0.20729 0.549297,0.21765 z m 5.244241,5.02659 q -0.725487,0 -1.181508,-0.36274 -0.45602,-0.37311 -0.673666,-0.99496 -0.207282,-0.63221 -0.207282,-1.39915 v -2.8294 q 0,-0.81876 0.186554,-1.49243 0.186553,-0.67367 0.63221,-1.07787 0.45602,-0.4042 1.243692,-0.4042 0.652938,0 1.098594,0.23838 0.456021,0.23837 0.694395,0.69439 0.248739,0.45602 0.259103,1.10896 0,0.0207 0,0.0622 0.01036,0.0311 0.01036,0.0622 h -1.119323 q 0,-0.61148 -0.196918,-0.93277 -0.196918,-0.32129 -0.746215,-0.32129 -0.300559,0 -0.518205,0.19692 -0.217646,0.18655 -0.331651,0.58039 -0.103641,0.39384 -0.103641,1.01568 v 1.27479 q 0.165825,-0.25911 0.466384,-0.41457 0.310923,-0.16582 0.756579,-0.16582 0.694395,0 1.088231,0.30056 0.393836,0.30055 0.559661,0.84985 0.165826,0.53894 0.165826,1.27479 0,0.75658 -0.207282,1.37842 -0.207282,0.62185 -0.663302,0.99496 -0.456021,0.36274 -1.2126,0.36274 z m 0,-0.92241 q 0.373107,0 0.580389,-0.20728 0.207282,-0.21764 0.290195,-0.57002 0.09328,-0.35238 0.09328,-0.76695 0,-0.49747 -0.05182,-0.9224 -0.04146,-0.42493 -0.238375,-0.67367 -0.196918,-0.2591 -0.673666,-0.2591 -0.22801,0 -0.414564,0.0829 -0.186554,0.0829 -0.321287,0.21765 -0.134734,0.12437 -0.217646,0.26946 v 1.25406 q 0,0.42493 0.08291,0.78767 0.09328,0.36275 0.300559,0.58039 0.207282,0.20728 0.570026,0.20728 z m 5.140594,0.92241 q -0.75658,0 -1.2126,-0.30056 -0.456021,-0.30056 -0.663303,-0.84986 -0.196918,-0.55966 -0.196918,-1.30587 0,-0.42493 0.07255,-0.74622 0.07255,-0.32129 0.207282,-0.55966 0.145098,-0.24874 0.331651,-0.42493 0.196918,-0.18655 0.424928,-0.33165 -0.414564,-0.27983 -0.673666,-0.72549 -0.259103,-0.45602 -0.259103,-1.15041 0,-0.6633 0.207282,-1.15042 0.207282,-0.48711 0.642575,-0.74621 0.445656,-0.26947 1.119323,-0.26947 0.673666,0 1.098594,0.26947 0.435292,0.2591 0.642574,0.74621 0.207282,0.48712 0.207282,1.15042 0,0.70476 -0.259102,1.15041 -0.248739,0.44566 -0.673667,0.72549 0.228011,0.1451 0.414564,0.33165 0.196918,0.17619 0.331652,0.42493 0.145097,0.23837 0.217646,0.55966 0.08291,0.32129 0.08291,0.74622 0,0.74621 -0.207282,1.30587 -0.196917,0.5493 -0.652938,0.84986 -0.445656,0.30056 -1.202235,0.30056 z m 0,-0.88095 q 0.404199,0 0.621846,-0.20728 0.217646,-0.20728 0.290194,-0.55966 0.08291,-0.35238 0.08291,-0.78767 0,-0.39384 -0.09328,-0.73586 -0.08291,-0.35238 -0.300559,-0.57002 -0.217646,-0.22801 -0.601117,-0.22801 -0.383472,0 -0.611482,0.21764 -0.217647,0.21765 -0.310923,0.57003 -0.09328,0.34202 -0.09328,0.74622 0,0.43529 0.08291,0.78767 0.08291,0.35238 0.300559,0.55966 0.228011,0.20728 0.632211,0.20728 z m 0,-4.14564 q 0.352379,-0.0104 0.528569,-0.21765 0.186553,-0.20728 0.259102,-0.52856 0.07255,-0.33166 0.07255,-0.68404 0,-0.5182 -0.186554,-0.88094 -0.186554,-0.36275 -0.673666,-0.36275 -0.487113,0 -0.684031,0.36275 -0.196918,0.36274 -0.196918,0.88094 0,0.35238 0.07255,0.68404 0.07255,0.32128 0.259102,0.52856 0.196918,0.20729 0.549298,0.21765 z m 5.171691,5.02659 q -0.756579,0 -1.212599,-0.30056 -0.456021,-0.30056 -0.663303,-0.84986 -0.196918,-0.55966 -0.196918,-1.30587 0,-0.42493 0.07255,-0.74622 0.07255,-0.32129 0.207282,-0.55966 0.145097,-0.24874 0.331651,-0.42493 0.196918,-0.18655 0.424928,-0.33165 -0.414564,-0.27983 -0.673666,-0.72549 -0.259103,-0.45602 -0.259103,-1.15041 0,-0.6633 0.207282,-1.15042 0.207282,-0.48711 0.642575,-0.74621 0.445656,-0.26947 1.119322,-0.26947 0.673667,0 1.098595,0.26947 0.435292,0.2591 0.642574,0.74621 0.207282,0.48712 0.207282,1.15042 0,0.70476 -0.259102,1.15041 -0.248739,0.44566 -0.673667,0.72549 0.22801,0.1451 0.414564,0.33165 0.196918,0.17619 0.331651,0.42493 0.145098,0.23837 0.217647,0.55966 0.08291,0.32129 0.08291,0.74622 0,0.74621 -0.207282,1.30587 -0.196918,0.5493 -0.652938,0.84986 -0.445656,0.30056 -1.202236,0.30056 z m 0,-0.88095 q 0.4042,0 0.621846,-0.20728 0.217647,-0.20728 0.290195,-0.55966 0.08291,-0.35238 0.08291,-0.78767 0,-0.39384 -0.09328,-0.73586 -0.08291,-0.35238 -0.300559,-0.57002 -0.217646,-0.22801 -0.601118,-0.22801 -0.383471,0 -0.611482,0.21764 -0.217646,0.21765 -0.310923,0.57003 -0.09328,0.34202 -0.09328,0.74622 0,0.43529 0.08291,0.78767 0.08291,0.35238 0.300559,0.55966 0.22801,0.20728 0.63221,0.20728 z m 0,-4.14564 q 0.35238,-0.0104 0.52857,-0.21765 0.186553,-0.20728 0.259102,-0.52856 0.07255,-0.33166 0.07255,-0.68404 0,-0.5182 -0.186554,-0.88094 -0.186554,-0.36275 -0.673667,-0.36275 -0.487112,0 -0.68403,0.36275 -0.196918,0.36274 -0.196918,0.88094 0,0.35238 0.07255,0.68404 0.07255,0.32128 0.259102,0.52856 0.196918,0.20729 0.549297,0.21765 z"
       id="text3"
       style="font-size:10.3641px;line-height:0;font-family:Oswald;-inkscape-font-specification:Oswald;fill:#fac610;stroke-width:0.0538989"
       aria-label="99 98419-8688" /><path
       d="m 122.55416,196.70132 q -0.90168,0 -1.67899,-0.2591 -0.77731,-0.25911 -1.3577,-0.79804 -0.58038,-0.52857 -0.90167,-1.33697 -0.32129,-0.81876 -0.32129,-1.91736 0,-1.39915 0.34202,-2.4252 0.35238,-1.03641 0.97422,-1.71007 0.63221,-0.67367 1.48207,-1.00532 0.86022,-0.33165 1.88626,-0.33165 0.94314,0 1.62717,0.33165 0.69439,0.33165 1.14005,0.91204 0.44566,0.57003 0.65294,1.29551 0.21764,0.71513 0.20728,1.49243 0,0.68403 -0.17619,1.29552 -0.17619,0.60111 -0.50784,1.0675 -0.33165,0.45602 -0.78767,0.72549 -0.45602,0.2591 -1.01568,0.2591 -0.2902,0 -0.51821,-0.11401 -0.22801,-0.114 -0.36274,-0.33165 -0.13474,-0.21764 -0.1451,-0.50784 -0.0726,0.32129 -0.30056,0.61148 -0.22801,0.2902 -0.68403,0.32129 -0.5182,0.0415 -0.87058,-0.20728 -0.34202,-0.2591 -0.51821,-0.6944 -0.16582,-0.44565 -0.16582,-0.95349 0,-0.58039 0.17618,-1.17115 0.17619,-0.60111 0.50785,-1.09859 0.33165,-0.49748 0.7773,-0.79804 0.45602,-0.30056 0.99496,-0.30056 0.114,0 0.23837,0.0415 0.12437,0.0311 0.23838,0.0933 0.114,0.0622 0.19691,0.12437 l 0.10364,-0.17619 h 0.8084 l -0.59075,3.80362 q -0.0207,0.19692 -0.0311,0.36275 -0.0104,0.16582 0.0414,0.26946 0.0622,0.10364 0.22801,0.10364 0.33166,0 0.61149,-0.19692 0.27983,-0.20728 0.48711,-0.57002 0.21765,-0.36274 0.33165,-0.83949 0.12437,-0.47675 0.12437,-1.01568 0.0104,-0.65294 -0.15546,-1.2437 -0.16583,-0.59075 -0.51821,-1.04677 -0.34201,-0.45602 -0.90167,-0.71512 -0.5493,-0.25911 -1.31624,-0.25911 -0.8084,0 -1.47171,0.32129 -0.6633,0.31092 -1.14005,0.91204 -0.47675,0.59076 -0.73585,1.44061 -0.2591,0.83949 -0.2591,1.88627 0,0.71512 0.15546,1.28515 0.15546,0.55966 0.44566,0.97422 0.30056,0.41457 0.71512,0.6944 0.41456,0.26946 0.9224,0.4042 0.51821,0.13473 1.10896,0.13473 0.30056,0 0.60112,-0.0311 0.31092,-0.0311 0.63221,-0.0933 0.33165,-0.0622 0.65294,-0.15546 l 0.19692,0.8084 q -0.57003,0.16582 -1.11933,0.24874 -0.54929,0.0829 -1.05713,0.0829 z m -0.22801,-3.27506 q 0.23837,-0.0415 0.46638,-0.29019 0.22801,-0.2591 0.33165,-0.79804 l 0.36275,-2.41483 q -0.0726,-0.0207 -0.1451,-0.0311 -0.0726,-0.0207 -0.1451,-0.0207 -0.41456,0 -0.78767,0.35238 -0.36274,0.34201 -0.59075,0.9224 -0.22801,0.58039 -0.22801,1.28515 0,0.30056 0.0725,0.5493 0.0829,0.23837 0.24874,0.36274 0.16583,0.12437 0.41457,0.0829 z m 5.28568,1.88627 v -5.99045 h 1.02605 v 0.57003 q 0.30056,-0.34202 0.6633,-0.50784 0.36274,-0.16583 0.74621,-0.16583 0.33166,0 0.59076,0.16583 0.26946,0.16582 0.38347,0.59075 0.32129,-0.39384 0.69439,-0.57003 0.38348,-0.18655 0.79804,-0.18655 0.29019,0 0.52857,0.1451 0.23837,0.13473 0.38347,0.44565 0.1451,0.30056 0.1451,0.79804 v 4.7053 h -1.01568 v -4.63275 q 0,-0.43529 -0.1451,-0.58039 -0.13473,-0.15546 -0.37311,-0.15546 -0.22801,0 -0.47675,0.13473 -0.24874,0.12437 -0.45602,0.35238 0,0.0415 0,0.0829 0,0.0415 0,0.0933 v 4.7053 h -1.01568 v -4.63275 q 0,-0.43529 -0.1451,-0.58039 -0.13473,-0.15546 -0.3731,-0.15546 -0.22801,0 -0.47675,0.13473 -0.23838,0.12437 -0.45602,0.35238 v 4.88149 z m 7.94927,0.0829 q -0.35238,0 -0.62185,-0.19691 -0.26946,-0.20729 -0.42493,-0.51821 -0.15546,-0.32129 -0.15546,-0.67367 0,-0.55966 0.18656,-0.94313 0.18655,-0.38347 0.50784,-0.64257 0.33165,-0.26947 0.75658,-0.46639 0.43529,-0.19692 0.91204,-0.38347 v -0.42493 q 0,-0.36274 -0.0415,-0.60112 -0.0415,-0.23837 -0.17619,-0.35238 -0.12437,-0.12436 -0.38347,-0.12436 -0.22801,0 -0.37311,0.10364 -0.13473,0.10364 -0.19692,0.30056 -0.0622,0.18655 -0.0622,0.44565 v 0.30056 l -1.0986,-0.0415 q 0.0207,-0.99495 0.45603,-1.46133 0.43529,-0.47675 1.34733,-0.47675 0.89131,0 1.26442,0.48711 0.37311,0.48711 0.37311,1.40952 v 2.73612 q 0,0.27983 0.0104,0.53893 0.0207,0.25911 0.0415,0.48712 0.0311,0.21764 0.0518,0.41456 h -1.01568 q -0.0311,-0.16583 -0.0829,-0.41456 -0.0414,-0.25911 -0.0622,-0.46639 -0.10364,0.35238 -0.4042,0.6633 -0.2902,0.30056 -0.8084,0.30056 z m 0.43529,-0.95349 q 0.16583,0 0.31092,-0.0933 0.1451,-0.0933 0.25911,-0.20728 0.114,-0.12437 0.15546,-0.19692 v -1.69971 q -0.25911,0.14509 -0.48712,0.29019 -0.22801,0.1451 -0.4042,0.31092 -0.16582,0.15547 -0.26946,0.36275 -0.0933,0.19692 -0.0933,0.45602 0,0.36274 0.13473,0.57002 0.13474,0.20729 0.39384,0.20729 z m 4.48767,0.95349 q -0.46639,0 -0.75658,-0.17619 -0.27983,-0.17619 -0.41457,-0.49747 -0.12437,-0.32129 -0.12437,-0.75658 v -3.90727 h -0.63221 v -0.73585 h 0.63221 v -1.75153 h 1.10896 v 1.75153 h 0.96386 v 0.73585 h -0.96386 v 3.83472 q 0,0.35238 0.11401,0.50784 0.114,0.1451 0.43529,0.1451 0.0829,0 0.18655,-0.0104 0.11401,-0.0104 0.21765,-0.0207 v 0.81877 q -0.20728,0.0311 -0.38347,0.0415 -0.17619,0.0207 -0.38347,0.0207 z m 3.24396,0 q -0.6633,0 -1.04677,-0.26946 -0.38347,-0.26947 -0.5493,-0.76695 -0.15546,-0.49747 -0.15546,-1.17114 v -1.74117 q 0,-0.67367 0.15546,-1.17114 0.16583,-0.49748 0.5493,-0.76695 0.38347,-0.26946 1.04677,-0.26946 0.66331,0 1.03642,0.26946 0.38347,0.26947 0.53893,0.76695 0.16582,0.49747 0.16582,1.17114 v 1.74117 q 0,0.67367 -0.16582,1.17114 -0.15546,0.49748 -0.53893,0.76695 -0.37311,0.26946 -1.03642,0.26946 z m 0,-0.81876 q 0.32129,0 0.44566,-0.18655 0.13473,-0.18656 0.15546,-0.48712 0.0311,-0.31092 0.0311,-0.64257 v -1.8759 q 0,-0.34202 -0.0311,-0.64258 -0.0207,-0.30056 -0.15546,-0.48711 -0.12437,-0.19692 -0.44566,-0.19692 -0.32128,0 -0.45602,0.19692 -0.13473,0.18655 -0.16582,0.48711 -0.0207,0.30056 -0.0207,0.64258 v 1.8759 q 0,0.33165 0.0207,0.64257 0.0311,0.30056 0.16582,0.48712 0.13474,0.18655 0.45602,0.18655 z m 2.75685,2.70503 v -7.95963 h 1.10896 v 0.47675 q 0.19692,-0.22801 0.47675,-0.39384 0.27983,-0.16582 0.6633,-0.16582 0.46638,0 0.73585,0.24874 0.27983,0.23837 0.41456,0.61148 0.13474,0.36274 0.17619,0.74621 0.0415,0.37311 0.0415,0.64258 v 1.45097 q 0,0.63221 -0.12437,1.20224 -0.12437,0.55966 -0.45602,0.91204 -0.32129,0.34201 -0.91204,0.34201 -0.32129,0 -0.57003,-0.15546 -0.24873,-0.16582 -0.44565,-0.37311 v 2.41484 z m 1.90699,-2.75685 q 0.2902,0 0.41457,-0.20728 0.12437,-0.21765 0.15546,-0.58039 0.0311,-0.36275 0.0311,-0.79804 v -1.45097 q 0,-0.37311 -0.0415,-0.68403 -0.0414,-0.32129 -0.17619,-0.50784 -0.13473,-0.18656 -0.42492,-0.18656 -0.21765,0 -0.41457,0.0933 -0.19692,0.0933 -0.34201,0.21765 v 3.83471 q 0.15546,0.11401 0.35238,0.19692 0.19691,0.0725 0.44565,0.0725 z m 2.78793,0.78767 v -5.99045 h 1.10896 v 5.99045 z m 0,-6.88176 v -1.16078 h 1.10896 v 1.16078 z m 2.30084,8.85094 v -7.95963 h 1.10896 v 0.47675 q 0.19692,-0.22801 0.47675,-0.39384 0.27983,-0.16582 0.6633,-0.16582 0.46638,0 0.73585,0.24874 0.27983,0.23837 0.41456,0.61148 0.13474,0.36274 0.17619,0.74621 0.0415,0.37311 0.0415,0.64258 v 1.45097 q 0,0.63221 -0.12437,1.20224 -0.12437,0.55966 -0.45602,0.91204 -0.32129,0.34201 -0.91204,0.34201 -0.32129,0 -0.57003,-0.15546 -0.24873,-0.16582 -0.44565,-0.37311 v 2.41484 z m 1.90699,-2.75685 q 0.2902,0 0.41457,-0.20728 0.12437,-0.21765 0.15546,-0.58039 0.0311,-0.36275 0.0311,-0.79804 v -1.45097 q 0,-0.37311 -0.0415,-0.68403 -0.0414,-0.32129 -0.17619,-0.50784 -0.13473,-0.18656 -0.42492,-0.18656 -0.21765,0 -0.41457,0.0933 -0.19692,0.0933 -0.34201,0.21765 v 3.83471 q 0.15546,0.11401 0.35238,0.19692 0.19691,0.0725 0.44565,0.0725 z m 3.61706,0.87058 q -0.35237,0 -0.62184,-0.19691 -0.26947,-0.20729 -0.42493,-0.51821 -0.15546,-0.32129 -0.15546,-0.67367 0,-0.55966 0.18655,-0.94313 0.18656,-0.38347 0.50784,-0.64257 0.33165,-0.26947 0.75658,-0.46639 0.4353,-0.19692 0.91204,-0.38347 v -0.42493 q 0,-0.36274 -0.0414,-0.60112 -0.0415,-0.23837 -0.17619,-0.35238 -0.12437,-0.12436 -0.38347,-0.12436 -0.22801,0 -0.37311,0.10364 -0.13473,0.10364 -0.19692,0.30056 -0.0622,0.18655 -0.0622,0.44565 v 0.30056 l -1.0986,-0.0415 q 0.0207,-0.99495 0.45602,-1.46133 0.43529,-0.47675 1.34733,-0.47675 0.89132,0 1.26442,0.48711 0.37311,0.48711 0.37311,1.40952 v 2.73612 q 0,0.27983 0.0104,0.53893 0.0207,0.25911 0.0415,0.48712 0.0311,0.21764 0.0518,0.41456 h -1.01568 q -0.0311,-0.16583 -0.0829,-0.41456 -0.0415,-0.25911 -0.0622,-0.46639 -0.10364,0.35238 -0.4042,0.6633 -0.29019,0.30056 -0.8084,0.30056 z m 0.4353,-0.95349 q 0.16582,0 0.31092,-0.0933 0.1451,-0.0933 0.2591,-0.20728 0.11401,-0.12437 0.15546,-0.19692 v -1.69971 q -0.2591,0.14509 -0.48711,0.29019 -0.22801,0.1451 -0.4042,0.31092 -0.16582,0.15547 -0.26947,0.36275 -0.0933,0.19692 -0.0933,0.45602 0,0.36274 0.13473,0.57002 0.13473,0.20729 0.39384,0.20729 z m 4.29074,0.95349 q -0.73585,0 -1.18151,-0.45602 -0.44565,-0.46638 -0.50784,-1.22296 l 0.92241,-0.27983 q 0.0829,0.57002 0.27983,0.86022 0.19691,0.27983 0.58039,0.27983 0.30056,0 0.45602,-0.16583 0.15546,-0.17619 0.15546,-0.46638 0,-0.2591 -0.11401,-0.46639 -0.114,-0.20728 -0.3731,-0.42492 l -1.02605,-0.88095 q -0.31092,-0.26947 -0.52857,-0.60112 -0.20728,-0.33165 -0.20728,-0.86022 0,-0.47675 0.18655,-0.79804 0.19692,-0.33165 0.53894,-0.49747 0.35237,-0.17619 0.81876,-0.17619 0.74621,0 1.14005,0.46638 0.39384,0.45602 0.45602,1.10896 l -0.78767,0.27983 q -0.0415,-0.31092 -0.12437,-0.53893 -0.0829,-0.23838 -0.23837,-0.36275 -0.15547,-0.13473 -0.4042,-0.13473 -0.26947,0 -0.4353,0.18656 -0.15546,0.17619 -0.15546,0.42492 0,0.15547 0.0622,0.31093 0.0726,0.14509 0.23837,0.29019 l 1.05714,0.97423 q 0.21765,0.19691 0.4042,0.42492 0.19692,0.22802 0.32129,0.51821 0.12437,0.29019 0.12437,0.67367 0,0.50784 -0.20729,0.84985 -0.20728,0.34202 -0.58039,0.51821 -0.3731,0.16582 -0.87058,0.16582 z m 4.14564,0 q -0.70475,0 -1.08823,-0.26946 -0.38347,-0.27983 -0.53893,-0.8084 -0.1451,-0.53894 -0.1451,-1.31624 v -1.36807 q 0,-0.79803 0.15547,-1.3266 0.15546,-0.52857 0.53893,-0.79804 0.39383,-0.26946 1.07786,-0.26946 0.75658,0 1.10896,0.31092 0.36275,0.31092 0.47675,0.90168 0.11401,0.58039 0.11401,1.39915 v 0.48711 h -2.36302 v 1.20224 q 0,0.36274 0.0622,0.59075 0.0726,0.22801 0.21764,0.34202 0.15546,0.10364 0.39384,0.10364 0.24874,0 0.37311,-0.11401 0.13473,-0.12436 0.17619,-0.34201 0.0518,-0.22801 0.0518,-0.52857 v -0.36274 h 1.07786 v 0.22801 q 0,0.90167 -0.38347,1.41988 -0.38347,0.5182 -1.30588,0.5182 z m -0.6633,-3.65852 h 1.27479 v -0.53894 q 0,-0.3731 -0.0415,-0.62184 -0.0415,-0.25911 -0.17619,-0.38348 -0.12437,-0.13473 -0.4042,-0.13473 -0.26947,0 -0.41456,0.12437 -0.13474,0.12437 -0.18656,0.42493 -0.0518,0.29019 -0.0518,0.8084 z m 3.36833,3.57561 v -5.99045 h 1.02605 v 0.57003 q 0.30055,-0.34202 0.6633,-0.50784 0.36274,-0.16583 0.74621,-0.16583 0.33165,0 0.59076,0.16583 0.26946,0.16582 0.38347,0.59075 0.32129,-0.39384 0.69439,-0.57003 0.38348,-0.18655 0.79804,-0.18655 0.29019,0 0.52857,0.1451 0.23837,0.13473 0.38347,0.44565 0.1451,0.30056 0.1451,0.79804 v 4.7053 h -1.01568 v -4.63275 q 0,-0.43529 -0.1451,-0.58039 -0.13473,-0.15546 -0.37311,-0.15546 -0.22801,0 -0.47675,0.13473 -0.24874,0.12437 -0.45602,0.35238 0,0.0415 0,0.0829 0,0.0415 0,0.0933 v 4.7053 h -1.01568 v -4.63275 q 0,-0.43529 -0.1451,-0.58039 -0.13473,-0.15546 -0.37311,-0.15546 -0.22801,0 -0.47674,0.13473 -0.23838,0.12437 -0.45602,0.35238 v 4.88149 z m 7.12014,0 v -5.99045 h 1.10896 v 5.99045 z m 0,-6.88176 v -1.16078 h 1.10896 v 1.16078 z m 2.30083,6.88176 v -5.99045 h 1.10896 v 0.59075 q 0.30056,-0.27983 0.6633,-0.47674 0.36275,-0.19692 0.79804,-0.19692 0.36274,0 0.5493,0.18655 0.19691,0.18656 0.26946,0.46639 0.0829,0.27983 0.0829,0.57002 v 4.8504 h -1.10895 v -4.52911 q 0,-0.32129 -0.0933,-0.49748 -0.0933,-0.17619 -0.38347,-0.17619 -0.18656,0 -0.39384,0.11401 -0.19692,0.10364 -0.38347,0.2591 v 4.82967 z m 6.19772,0.0829 q -0.6633,0 -1.04677,-0.26946 -0.38347,-0.26947 -0.5493,-0.76695 -0.15546,-0.49747 -0.15546,-1.17114 v -1.74117 q 0,-0.67367 0.15546,-1.17114 0.16583,-0.49748 0.5493,-0.76695 0.38347,-0.26946 1.04677,-0.26946 0.66331,0 1.03641,0.26946 0.38348,0.26947 0.53894,0.76695 0.16582,0.49747 0.16582,1.17114 v 1.74117 q 0,0.67367 -0.16582,1.17114 -0.15546,0.49748 -0.53894,0.76695 -0.3731,0.26946 -1.03641,0.26946 z m 0,-0.81876 q 0.32129,0 0.44566,-0.18655 0.13473,-0.18656 0.15546,-0.48712 0.0311,-0.31092 0.0311,-0.64257 v -1.8759 q 0,-0.34202 -0.0311,-0.64258 -0.0207,-0.30056 -0.15546,-0.48711 -0.12437,-0.19692 -0.44566,-0.19692 -0.32128,0 -0.45602,0.19692 -0.13473,0.18655 -0.16582,0.48711 -0.0207,0.30056 -0.0207,0.64258 v 1.8759 q 0,0.33165 0.0207,0.64257 0.0311,0.30056 0.16582,0.48712 0.13474,0.18655 0.45602,0.18655 z m 3.53415,0.73585 -1.18151,-5.99045 h 1.11933 l 0.73585,4.81931 0.74621,-4.81931 h 1.07787 l -1.14005,5.99045 z m 4.86077,0.0829 q -0.66331,0 -1.04678,-0.26946 -0.38347,-0.26947 -0.54929,-0.76695 -0.15547,-0.49747 -0.15547,-1.17114 v -1.74117 q 0,-0.67367 0.15547,-1.17114 0.16582,-0.49748 0.54929,-0.76695 0.38347,-0.26946 1.04678,-0.26946 0.6633,0 1.03641,0.26946 0.38347,0.26947 0.53893,0.76695 0.16583,0.49747 0.16583,1.17114 v 1.74117 q 0,0.67367 -0.16583,1.17114 -0.15546,0.49748 -0.53893,0.76695 -0.37311,0.26946 -1.03641,0.26946 z m 0,-0.81876 q 0.32128,0 0.44565,-0.18655 0.13474,-0.18656 0.15546,-0.48712 0.0311,-0.31092 0.0311,-0.64257 v -1.8759 q 0,-0.34202 -0.0311,-0.64258 -0.0207,-0.30056 -0.15546,-0.48711 -0.12437,-0.19692 -0.44565,-0.19692 -0.32129,0 -0.45602,0.19692 -0.13474,0.18655 -0.16583,0.48711 -0.0207,0.30056 -0.0207,0.64258 v 1.8759 q 0,0.33165 0.0207,0.64257 0.0311,0.30056 0.16583,0.48712 0.13473,0.18655 0.45602,0.18655 z m 4.14563,0.81876 q -0.73585,0 -1.1815,-0.45602 -0.44566,-0.46638 -0.50784,-1.22296 l 0.9224,-0.27983 q 0.0829,0.57002 0.27983,0.86022 0.19692,0.27983 0.58039,0.27983 0.30056,0 0.45602,-0.16583 0.15546,-0.17619 0.15546,-0.46638 0,-0.2591 -0.114,-0.46639 -0.11401,-0.20728 -0.37311,-0.42492 l -1.02605,-0.88095 q -0.31092,-0.26947 -0.52857,-0.60112 -0.20728,-0.33165 -0.20728,-0.86022 0,-0.47675 0.18656,-0.79804 0.19691,-0.33165 0.53893,-0.49747 0.35238,-0.17619 0.81876,-0.17619 0.74622,0 1.14005,0.46638 0.39384,0.45602 0.45603,1.10896 l -0.78768,0.27983 q -0.0414,-0.31092 -0.12437,-0.53893 -0.0829,-0.23838 -0.23837,-0.36275 -0.15546,-0.13473 -0.4042,-0.13473 -0.26947,0 -0.43529,0.18656 -0.15546,0.17619 -0.15546,0.42492 0,0.15547 0.0622,0.31093 0.0725,0.14509 0.23838,0.29019 l 1.05713,0.97423 q 0.21765,0.19691 0.4042,0.42492 0.19692,0.22802 0.32129,0.51821 0.12437,0.29019 0.12437,0.67367 0,0.50784 -0.20728,0.84985 -0.20728,0.34202 -0.58039,0.51821 -0.37311,0.16582 -0.87059,0.16582 z"
       id="text4"
       style="font-size:10.3641px;line-height:0;font-family:Oswald;-inkscape-font-specification:Oswald;fill:#fac610;stroke-width:0.0667804"
       aria-label="@matopipaseminovos" /></g></svg>
