<?xml version="1.0" encoding="UTF-8" standalone="no"?>
<!-- Created with Inkscape (http://www.inkscape.org/) -->

<svg
   width="1700"
   height="1700"
   viewBox="0 0 363.2845 363.2845"
   version="1.1"
   id="svg1"
   xml:space="preserve"
   inkscape:version="1.4 (86a8ad7, 2024-10-11)"
   sodipodi:docname="frame.svg"
   inkscape:export-filename="semireboque olivo\2.png"
   inkscape:export-xdpi="96"
   inkscape:export-ydpi="96"
   xmlns:inkscape="http://www.inkscape.org/namespaces/inkscape"
   xmlns:sodipodi="http://sodipodi.sourceforge.net/DTD/sodipodi-0.dtd"
   xmlns="http://www.w3.org/2000/svg"
   xmlns:svg="http://www.w3.org/2000/svg"><sodipodi:namedview
     id="namedview1"
     pagecolor="#505050"
     bordercolor="#eeeeee"
     borderopacity="1"
     inkscape:showpageshadow="0"
     inkscape:pageopacity="0"
     inkscape:pagecheckerboard="0"
     inkscape:deskcolor="#505050"
     inkscape:document-units="mm"
     showguides="false"
     inkscape:zoom="0.34876895"
     inkscape:cx="524.70267"
     inkscape:cy="950.48599"
     inkscape:window-width="1920"
     inkscape:window-height="1001"
     inkscape:window-x="-9"
     inkscape:window-y="-9"
     inkscape:window-maximized="1"
     inkscape:current-layer="layer2" /><defs
     id="defs1" /><g
     inkscape:groupmode="layer"
     id="layer2"
     inkscape:label="Layer 2"
     transform="translate(375.20018,22.52934)" /><g
     inkscape:label="Layer 1"
     inkscape:groupmode="layer"
     id="layer1"
     style="display:inline;opacity:1"
     transform="scale(1.7594882)"><path
       id="rect1"
       style="display:inline;fill:#000000;fill-opacity:1;stroke-width:0.365538"
       d="M 206.47169,0 V 206.47169 H 0 V 0 Z M 6.0726967,30.363484 V 176.10821 H 200.39899 V 30.363484"
       sodipodi:nodetypes="ccccccccc" /><g
       id="g8"
       transform="translate(-8.6223727)"><path
         style="display:inline;opacity:1;fill:#fac610;fill-opacity:1;stroke:none;stroke-width:0.871241;stroke-dasharray:none;stroke-opacity:1"
         d="m 71.363667,36.623995 -13.039651,-0.908759 -0.697421,-0.29588 -0.359278,-0.401541 -0.528346,-0.295879 -0.295879,-0.338139 -0.27474,-0.211342 -0.147936,-0.634018 -0.126805,-0.507214 -0.253609,-0.422681 -0.147936,-0.676285 -0.486086,-0.528349 -0.04226,-0.42268 -0.464947,-0.274741 -0.14794,-0.317011 0.105669,-0.528349 0.232478,-0.274741 4.015448,-8.876261 -0.338139,-0.105669 -0.317014,0.0634 -0.105666,-0.253609 -0.253609,-0.126801 -0.190203,-0.04227 -0.147943,-0.08453 -0.317007,-0.443819 -0.507218,-0.1268 -0.655146,-0.295876 -0.57062,-0.42268 -0.42268,-0.274744 -0.147936,-0.169068 -0.274745,-0.08454 -0.126804,-0.422677 -0.676282,-0.528349 0.02114,-0.464951 -0.232474,-0.126801 -0.27474,-3.381434 0.92989,-0.0634 0.126808,-0.486078 0.676285,-0.0634 0.739684,-0.359278 0.359286,0.04227 0.570612,-0.570619 h 0.528349 l 0.401549,0.190206 0.655154,-0.169068 0.951025,0.126801 0.211342,0.126808 0.295872,-0.147939 -0.295872,-0.528353 -0.06341,-0.338143 0.274744,-0.338139 0.634019,0.08453 0.443808,-0.04227 0.655157,-0.190207 0.57062,0.14794 0.359278,0.190207 -0.04227,0.359274 -0.08453,0.359278 0.0634,0.549484 0.612883,0.04226 0.443812,0.04227 0.211342,0.29588 0.359274,0.338139 0.464951,0.169071 0.338143,0.02113 0.29588,0.359275 v 0.528352 l 0.31701,0.317008 0.33814,0.147939 0.0423,0.317004 -0.0423,0.338147 0.16907,0.42268 0.16907,0.507214 0.31701,0.401545 0.25361,0.253608 0.14793,0.105673 0.0634,0.295872 0.19021,0.295876 -0.0211,0.359278 0.27474,0.0634 0.0634,0.38041 0.46496,0.232477 h 0.54947 l 0.33815,-0.169075 0.0211,-0.65515 0.23248,-0.338143 0.42267,-0.401548 0.16908,-0.486079 0.31701,-0.295879 0.1268,-0.253606 0.82423,-0.211338 0.14793,-0.464951 0.0845,-0.253605 0.38041,-0.126808 h 0.19021 v 1.077834 l 0.0845,0.338146 0.50721,0.211335 1.14123,0.19021 0.52835,-0.232473 1.69072,0.380413 -0.40155,1.394837 -0.38041,0.464947 v 0.317008 l -0.29588,0.359278 -0.44381,0.147939 -0.27474,0.359282 0.0845,0.147936 0.50721,-0.02114 0.6129,-0.591751 0.57061,-0.211342 0.38041,-0.401541 -0.0211,-0.528353 0.31701,-0.443808 0.73969,-0.126808 0.59175,-0.04227 0.59175,0.147939 0.92989,0.38041 1.1835,0.401545 0.90877,0.486082 0.63401,0.359278 0.14794,0.232474 0.65515,-0.232474 0.84536,0.80309 0.33814,0.507214 0.19021,0.549481 -0.46494,0.781958 -0.14794,0.824225 1.22577,-0.612883 0.40155,-0.443816 0.84536,-0.0634 0.10566,-0.317011 0.35928,0.04227 1.22577,0.549484 0.38041,0.232474 1.0567,0.27474 0.27474,-0.147936 0.69742,0.274744 0.76082,0.147929 -0.52835,0.570623 -0.0423,0.274741 0.35929,1.162364 0.1902,0.46495 0.14794,0.401545 -0.23248,0.443812 0.0211,0.549485 0.1268,0.69742 0.10567,0.38041 0.21134,0.380413 0.0211,0.908755 0.1902,0.634022 0.0845,0.739688 0.16907,0.359278 0.38041,0.147939 0.10567,0.317008 -0.21134,0.317011 -0.29588,0.612883 -0.0845,0.147936 0.1902,0.317011 -0.14793,0.401545 0.1902,0.211342 -0.0423,0.42268 -0.44381,0.359274 -0.84536,0.570616 -0.19021,0.253613 -0.21133,-0.02114 -0.19021,0.401545 -0.42268,0.232473 -0.21134,-0.04227 -0.0423,0.338147 -0.67629,0.169067 -0.71856,0.211342 -0.29587,0.232474 -0.65515,0.02114 -0.38042,-0.338139 h -0.67628 l -0.31701,-0.105669 -0.33814,0.169068 -0.14794,0.04227 0.0211,0.253609 0.12681,0.464947 -0.0845,0.612887 -0.12681,0.380413 -0.90875,0.718553 -0.25361,-0.126805 -0.35928,0.02114 -0.29587,0.253609 -0.40155,0.211338 -0.42268,0.04227 -0.33814,-0.08454 -0.19021,-0.190206 -0.19021,-0.232474 -0.1268,-0.317007 -0.0634,-0.232474 -0.35928,-0.0634 -0.44381,0.295876 -0.76082,0.464947 -0.12681,0.464947 -0.40155,0.612883 -0.0634,0.317011 0.21135,0.147936 0.48608,0.169075 0.1268,0.14794 -0.25361,0.422673 0.19021,0.211342 -0.35928,0.380416 v 0.33814 l 0.0423,0.253608 0.0634,0.317008 0.16907,0.211338 -0.10567,0.422677 -0.78195,0.105672 -0.40155,0.380413 -0.69742,-0.02113 -0.71856,0.232466 -0.29587,-0.232466 -0.0845,0.507214 -0.54948,-0.190207 -0.23247,-0.105673 -0.21135,-0.317007 -0.3804,0.274744 -0.44381,-0.105673 -0.27475,0.169068 -0.16906,-0.232466 -0.10568,-0.549488 -0.44381,-0.38041 -0.25361,0.232477 -0.23248,0.338139 -0.1902,0.443816 -0.23247,0.0634 -1.37371,-0.507218 -0.0423,-0.253605 0.0634,-0.57062 v -0.464943 l -0.33814,0.274733 -0.23247,0.634026 -0.0845,0.147936 -0.31701,-0.295876 v -0.697421 l -0.0211,-0.401541 v -1.225777 l -0.16907,-0.169068 0.27474,-1.035563 0.0845,-0.676289 0.1268,-0.42268 z"
         id="path1-3"
         transform="scale(0.56834709)" /><g
         inkscape:label="Layer 1"
         id="layer1-1"
         transform="matrix(0.0611609,0,0,0.0611609,80.395917,24.778309)"
         style="display:inline"><g
           id="g1"
           transform="matrix(2.9202654,0,0,2.9202654,798.11748,-41.612757)"
           style="display:inline"><rect
             style="fill:#fac610;fill-opacity:1;stroke:#000000;stroke-width:8.93478;stroke-dasharray:none;stroke-opacity:1"
             id="rect1-1"
             width="370.16391"
             height="98.747505"
             x="-398.1496"
             y="-86.735817"
             rx="11.540048" /><text
             xml:space="preserve"
             style="font-style:normal;font-variant:normal;font-weight:bold;font-stretch:normal;font-size:88.5533px;line-height:0;font-family:'Big Shoulders Stencil';-inkscape-font-specification:'Big Shoulders Stencil Bold';text-align:start;writing-mode:lr-tb;direction:ltr;text-anchor:start;fill:#000000;fill-opacity:1;stroke-width:0.461214"
             x="-380.05716"
             y="-1.9407448"
             id="text2"><tspan
               sodipodi:role="line"
               id="tspan2"
               style="font-style:normal;font-variant:normal;font-weight:bold;font-stretch:normal;font-size:88.5533px;line-height:0;font-family:'Big Shoulders Stencil';-inkscape-font-specification:'Big Shoulders Stencil Bold';fill:#000000;fill-opacity:1;stroke-width:0.461214"
               x="-380.05716"
               y="-1.9407448">MATOPIPA</tspan></text></g><text
           xml:space="preserve"
           style="font-style:normal;font-variant:normal;font-weight:normal;font-stretch:normal;font-size:253.802px;line-height:0;font-family:Oswald;-inkscape-font-specification:Oswald;text-align:start;writing-mode:lr-tb;direction:ltr;text-anchor:start;fill:#fac610;stroke-width:1.32189"
           x="748.02386"
           y="-48.183949"
           id="text1"><tspan
             sodipodi:role="line"
             id="tspan1"
             style="stroke-width:1.32189"
             x="748.02386"
             y="-48.183949">SEMINOVOS</tspan></text></g></g><text
       xml:space="preserve"
       style="font-style:normal;font-variant:normal;font-weight:normal;font-stretch:normal;font-size:10.3641px;line-height:0;font-family:Oswald;-inkscape-font-specification:Oswald;text-align:start;writing-mode:lr-tb;direction:ltr;text-anchor:start;display:inline;fill:#fac610;stroke-width:0.0538989"
       x="5.6166763"
       y="194.29199"
       id="text3"><tspan
         sodipodi:role="line"
         id="tspan3"
         style="font-size:10.3641px;stroke-width:0.0538989"
         x="5.6166763"
         y="194.29199">99 98419-8688</tspan></text><text
       xml:space="preserve"
       style="font-style:normal;font-variant:normal;font-weight:normal;font-stretch:normal;font-size:10.3641px;line-height:0;font-family:Oswald;-inkscape-font-specification:Oswald;text-align:start;writing-mode:lr-tb;direction:ltr;text-anchor:start;display:inline;fill:#fac610;stroke-width:0.0667804"
       x="117.68303"
       y="195.31253"
       id="text4"><tspan
         sodipodi:role="line"
         id="tspan4"
         style="font-size:10.3641px;stroke-width:0.0667804"
         x="117.68303"
         y="195.31253">@matopipaseminovos</tspan></text></g></svg>
